<svg width="28" height="28" viewBox="0 0 28 28" fill="none" xmlns="http://www.w3.org/2000/svg">
<rect width="28" height="28" rx="4" fill="#FDF3F3"/>
<g clip-path="url(#clip0_4037_106385)">
<path d="M5.11133 8.16536C5.11133 7.70513 5.48442 7.33203 5.94466 7.33203H22.0558C22.516 7.33203 22.8891 7.70513 22.8891 8.16536C22.8891 8.6256 22.516 8.9987 22.0558 8.9987H5.94466C5.48443 8.9987 5.11133 8.6256 5.11133 8.16536ZM5.11133 13.9987C5.11133 13.5385 5.48442 13.1654 5.94466 13.1654H22.0558C22.516 13.1654 22.8891 13.5385 22.8891 13.9987C22.8891 14.4589 22.516 14.832 22.0558 14.832H5.94466C5.48443 14.832 5.11133 14.4589 5.11133 13.9987ZM5.11133 19.832C5.11133 19.3718 5.48442 18.9987 5.94466 18.9987H22.0558C22.516 18.9987 22.8891 19.3718 22.8891 19.832C22.8891 20.2923 22.516 20.6654 22.0558 20.6654H5.94466C5.48443 20.6654 5.11133 20.2923 5.11133 19.832Z" fill="#D82E2E"/>
</g>
<defs>
<clipPath id="clip0_4037_106385">
<rect width="20" height="20" fill="white" transform="translate(4 4)"/>
</clipPath>
</defs>
</svg>
