<svg width="24" height="24" viewBox="0 0 24 24" fill="none" xmlns="http://www.w3.org/2000/svg">
<rect width="24" height="24" rx="4" fill="#E6E9EE"/>
<path d="M18.4615 7.75H5.53846C5.2441 7.75 5 7.41 5 7C5 6.59 5.2441 6.25 5.53846 6.25H18.4615C18.7559 6.25 19 6.59 19 7C19 7.41 18.7559 7.75 18.4615 7.75Z" fill="#384860"/>
<path d="M18.4615 12.75H5.53846C5.2441 12.75 5 12.41 5 12C5 11.59 5.2441 11.25 5.53846 11.25H18.4615C18.7559 11.25 19 11.59 19 12C19 12.41 18.7559 12.75 18.4615 12.75Z" fill="#384860"/>
<path d="M18.4615 17.75H5.53846C5.2441 17.75 5 17.41 5 17C5 16.59 5.2441 16.25 5.53846 16.25H18.4615C18.7559 16.25 19 16.59 19 17C19 17.41 18.7559 17.75 18.4615 17.75Z" fill="#384860"/>
</svg>
